<mxfile host="Electron" modified="2023-10-07T08:48:52.931Z" agent="Mozilla/5.0 (Windows NT 10.0; Win64; x64) AppleWebKit/537.36 (KHTML, like Gecko) draw.io/22.0.2 Chrome/114.0.5735.289 Electron/25.8.4 Safari/537.36" etag="-rMIc5ruVknD_xy-FS0Q" version="22.0.2" type="device">
  <diagram name="페이지-1" id="6UV4gwZDc8Ltoo-r6Xku">
    <mxGraphModel dx="2298" dy="828" grid="1" gridSize="10" guides="1" tooltips="1" connect="1" arrows="1" fold="1" page="1" pageScale="1" pageWidth="1200" pageHeight="1920" math="0" shadow="0">
      <root>
        <mxCell id="0" />
        <mxCell id="1" parent="0" />
        <mxCell id="0Grb8Cnhm_Ea4ZnXyS2j-19" value="" style="group" parent="1" vertex="1" connectable="0">
          <mxGeometry x="-810" y="790" width="378" height="360" as="geometry" />
        </mxCell>
        <mxCell id="0Grb8Cnhm_Ea4ZnXyS2j-2" value="Boxing&lt;br&gt;Unboxing" style="rounded=0;whiteSpace=wrap;html=1;" parent="0Grb8Cnhm_Ea4ZnXyS2j-19" vertex="1">
          <mxGeometry x="36" width="72" height="36" as="geometry" />
        </mxCell>
        <mxCell id="0Grb8Cnhm_Ea4ZnXyS2j-3" value="Heap" style="text;html=1;strokeColor=none;fillColor=none;align=center;verticalAlign=middle;whiteSpace=wrap;rounded=0;" parent="0Grb8Cnhm_Ea4ZnXyS2j-19" vertex="1">
          <mxGeometry y="45" width="54" height="27" as="geometry" />
        </mxCell>
        <mxCell id="0Grb8Cnhm_Ea4ZnXyS2j-4" value="Stack" style="text;html=1;strokeColor=none;fillColor=none;align=center;verticalAlign=middle;whiteSpace=wrap;rounded=0;" parent="0Grb8Cnhm_Ea4ZnXyS2j-19" vertex="1">
          <mxGeometry y="324" width="54" height="27" as="geometry" />
        </mxCell>
        <mxCell id="0Grb8Cnhm_Ea4ZnXyS2j-1" value="" style="whiteSpace=wrap;html=1;aspect=fixed;" parent="0Grb8Cnhm_Ea4ZnXyS2j-19" vertex="1">
          <mxGeometry x="63" y="45" width="315" height="315" as="geometry" />
        </mxCell>
        <mxCell id="0Grb8Cnhm_Ea4ZnXyS2j-6" value="" style="rounded=0;whiteSpace=wrap;html=1;" parent="0Grb8Cnhm_Ea4ZnXyS2j-19" vertex="1">
          <mxGeometry x="89.667" y="243" width="270.333" height="99" as="geometry" />
        </mxCell>
        <mxCell id="0Grb8Cnhm_Ea4ZnXyS2j-7" value="main()" style="text;html=1;strokeColor=none;fillColor=none;align=center;verticalAlign=middle;whiteSpace=wrap;rounded=0;" parent="0Grb8Cnhm_Ea4ZnXyS2j-19" vertex="1">
          <mxGeometry x="189.82999999999996" y="219.66750000000005" width="69.99899999999998" height="34.99950000000001" as="geometry" />
        </mxCell>
        <mxCell id="0Grb8Cnhm_Ea4ZnXyS2j-8" value="Object obj" style="rounded=0;whiteSpace=wrap;html=1;" parent="0Grb8Cnhm_Ea4ZnXyS2j-19" vertex="1">
          <mxGeometry x="101.34" y="254.67300000000003" width="51.102000000000004" height="15.327000000000002" as="geometry" />
        </mxCell>
        <mxCell id="0Grb8Cnhm_Ea4ZnXyS2j-9" value="Object" style="rounded=0;whiteSpace=wrap;html=1;fillColor=#f5f5f5;fontColor=#333333;strokeColor=#666666;" parent="0Grb8Cnhm_Ea4ZnXyS2j-19" vertex="1">
          <mxGeometry x="78.00299999999999" y="60.00299999999999" width="77.78055549999999" height="23.333000000000002" as="geometry" />
        </mxCell>
        <mxCell id="0Grb8Cnhm_Ea4ZnXyS2j-14" value="" style="edgeStyle=orthogonalEdgeStyle;rounded=0;orthogonalLoop=1;jettySize=auto;html=1;entryX=0;entryY=0.5;entryDx=0;entryDy=0;exitX=0;exitY=0.5;exitDx=0;exitDy=0;" parent="0Grb8Cnhm_Ea4ZnXyS2j-19" source="0Grb8Cnhm_Ea4ZnXyS2j-8" target="0Grb8Cnhm_Ea4ZnXyS2j-9" edge="1">
          <mxGeometry relative="1" as="geometry">
            <mxPoint x="23.336999999999918" y="270" as="sourcePoint" />
            <mxPoint x="9.000000000000064" y="71.66949999999986" as="targetPoint" />
            <Array as="points">
              <mxPoint x="36" y="262.8" />
              <mxPoint x="36" y="72" />
            </Array>
          </mxGeometry>
        </mxCell>
        <mxCell id="0Grb8Cnhm_Ea4ZnXyS2j-10" value="int&lt;br&gt;Typeinfo" style="rounded=0;whiteSpace=wrap;html=1;rotation=0;" parent="0Grb8Cnhm_Ea4ZnXyS2j-19" vertex="1">
          <mxGeometry x="78.00299999999999" y="83.33600000000001" width="69.99899999999998" height="58.33250000000001" as="geometry" />
        </mxCell>
        <mxCell id="0Grb8Cnhm_Ea4ZnXyS2j-16" value="" style="rounded=0;whiteSpace=wrap;html=1;rotation=0;" parent="0Grb8Cnhm_Ea4ZnXyS2j-19" vertex="1">
          <mxGeometry x="148.005" y="83.34" width="166.995" height="58.329" as="geometry" />
        </mxCell>
        <mxCell id="0Grb8Cnhm_Ea4ZnXyS2j-17" value="4byte" style="text;html=1;strokeColor=none;fillColor=none;align=center;verticalAlign=middle;whiteSpace=wrap;rounded=0;" parent="0Grb8Cnhm_Ea4ZnXyS2j-19" vertex="1">
          <mxGeometry x="204.49800000000002" y="60.00299999999999" width="54" height="27" as="geometry" />
        </mxCell>
        <mxCell id="0Grb8Cnhm_Ea4ZnXyS2j-18" value="4byte" style="text;html=1;strokeColor=none;fillColor=none;align=center;verticalAlign=middle;whiteSpace=wrap;rounded=0;" parent="0Grb8Cnhm_Ea4ZnXyS2j-19" vertex="1">
          <mxGeometry x="86.00400000000003" y="136.8" width="54" height="27" as="geometry" />
        </mxCell>
        <mxCell id="XrJG6Ypeg29cbS2W2j_m-1" value="Delegate&lt;br&gt;(대리자)" style="text;html=1;strokeColor=#001DBC;fillColor=#0050ef;align=center;verticalAlign=middle;whiteSpace=wrap;rounded=0;fontColor=#ffffff;" vertex="1" parent="1">
          <mxGeometry x="-810" y="10" width="120" height="60" as="geometry" />
        </mxCell>
        <mxCell id="XrJG6Ypeg29cbS2W2j_m-2" value="함수의 주소를 참조하는 타입&lt;br&gt;함수체이닝 : chaining (함수뒤에 계속 다른 함수를 연결) 구현 가능&lt;br&gt;호출시에 등록된 모든 함수를 차례대로 호출 해줌." style="text;html=1;strokeColor=#666666;fillColor=#f5f5f5;align=center;verticalAlign=middle;whiteSpace=wrap;rounded=0;fontColor=#333333;" vertex="1" parent="1">
          <mxGeometry x="-670" y="12.5" width="390" height="55" as="geometry" />
        </mxCell>
        <mxCell id="XrJG6Ypeg29cbS2W2j_m-3" value="구독자" style="swimlane;fontStyle=0;childLayout=stackLayout;horizontal=1;startSize=30;horizontalStack=0;resizeParent=1;resizeParentMax=0;resizeLast=0;collapsible=1;marginBottom=0;whiteSpace=wrap;html=1;" vertex="1" parent="1">
          <mxGeometry x="-820" y="130" width="110" height="90" as="geometry">
            <mxRectangle x="-730" y="140" width="80" height="30" as="alternateBounds" />
          </mxGeometry>
        </mxCell>
        <mxCell id="XrJG6Ypeg29cbS2W2j_m-4" value="+filed : type" style="text;strokeColor=none;fillColor=none;align=left;verticalAlign=middle;spacingLeft=4;spacingRight=4;overflow=hidden;points=[[0,0.5],[1,0.5]];portConstraint=eastwest;rotatable=0;whiteSpace=wrap;html=1;" vertex="1" parent="XrJG6Ypeg29cbS2W2j_m-3">
          <mxGeometry y="30" width="110" height="30" as="geometry" />
        </mxCell>
        <mxCell id="XrJG6Ypeg29cbS2W2j_m-5" value="+ method (type) : type" style="text;strokeColor=default;fillColor=none;align=left;verticalAlign=middle;spacingLeft=4;spacingRight=4;overflow=hidden;points=[[0,0.5],[1,0.5]];portConstraint=eastwest;rotatable=0;whiteSpace=wrap;html=1;" vertex="1" parent="XrJG6Ypeg29cbS2W2j_m-3">
          <mxGeometry y="60" width="110" height="30" as="geometry" />
        </mxCell>
        <mxCell id="XrJG6Ypeg29cbS2W2j_m-11" value="- : private&lt;br&gt;+ : public" style="text;html=1;strokeColor=none;fillColor=none;align=center;verticalAlign=middle;whiteSpace=wrap;rounded=0;" vertex="1" parent="1">
          <mxGeometry x="-820" y="87" width="60" height="30" as="geometry" />
        </mxCell>
        <mxCell id="XrJG6Ypeg29cbS2W2j_m-12" value="유튜버" style="swimlane;fontStyle=0;childLayout=stackLayout;horizontal=1;startSize=30;horizontalStack=0;resizeParent=1;resizeParentMax=0;resizeLast=0;collapsible=1;marginBottom=0;whiteSpace=wrap;html=1;" vertex="1" parent="1">
          <mxGeometry x="-340" y="130" width="290" height="120" as="geometry">
            <mxRectangle x="-520" y="140" width="80" height="30" as="alternateBounds" />
          </mxGeometry>
        </mxCell>
        <mxCell id="XrJG6Ypeg29cbS2W2j_m-13" value="- 업로드한 콘텐츠들 : 콘텐츠 []" style="text;strokeColor=none;fillColor=none;align=left;verticalAlign=middle;spacingLeft=4;spacingRight=4;overflow=hidden;points=[[0,0.5],[1,0.5]];portConstraint=eastwest;rotatable=0;whiteSpace=wrap;html=1;" vertex="1" parent="XrJG6Ypeg29cbS2W2j_m-12">
          <mxGeometry y="30" width="290" height="30" as="geometry" />
        </mxCell>
        <mxCell id="XrJG6Ypeg29cbS2W2j_m-27" value="- 구독자" style="text;strokeColor=none;fillColor=none;align=left;verticalAlign=middle;spacingLeft=4;spacingRight=4;overflow=hidden;points=[[0,0.5],[1,0.5]];portConstraint=eastwest;rotatable=0;whiteSpace=wrap;html=1;" vertex="1" parent="XrJG6Ypeg29cbS2W2j_m-12">
          <mxGeometry y="60" width="290" height="30" as="geometry" />
        </mxCell>
        <mxCell id="XrJG6Ypeg29cbS2W2j_m-14" value="+ 콘텐츠업로드 (콘텐츠) : void" style="text;strokeColor=default;fillColor=none;align=left;verticalAlign=middle;spacingLeft=4;spacingRight=4;overflow=hidden;points=[[0,0.5],[1,0.5]];portConstraint=eastwest;rotatable=0;whiteSpace=wrap;html=1;" vertex="1" parent="XrJG6Ypeg29cbS2W2j_m-12">
          <mxGeometry y="90" width="290" height="30" as="geometry" />
        </mxCell>
        <mxCell id="XrJG6Ypeg29cbS2W2j_m-16" value="구독자" style="swimlane;fontStyle=0;childLayout=stackLayout;horizontal=1;startSize=30;horizontalStack=0;resizeParent=1;resizeParentMax=0;resizeLast=0;collapsible=1;marginBottom=0;whiteSpace=wrap;html=1;" vertex="1" parent="1">
          <mxGeometry x="-700" y="130" width="140" height="90" as="geometry">
            <mxRectangle x="-780" y="260" width="80" height="30" as="alternateBounds" />
          </mxGeometry>
        </mxCell>
        <mxCell id="XrJG6Ypeg29cbS2W2j_m-17" value="+filed : type" style="text;strokeColor=none;fillColor=none;align=left;verticalAlign=middle;spacingLeft=4;spacingRight=4;overflow=hidden;points=[[0,0.5],[1,0.5]];portConstraint=eastwest;rotatable=0;whiteSpace=wrap;html=1;" vertex="1" parent="XrJG6Ypeg29cbS2W2j_m-16">
          <mxGeometry y="30" width="140" height="30" as="geometry" />
        </mxCell>
        <mxCell id="XrJG6Ypeg29cbS2W2j_m-18" value="+ 알림 (콘텐츠)" style="text;strokeColor=default;fillColor=none;align=left;verticalAlign=middle;spacingLeft=4;spacingRight=4;overflow=hidden;points=[[0,0.5],[1,0.5]];portConstraint=eastwest;rotatable=0;whiteSpace=wrap;html=1;" vertex="1" parent="XrJG6Ypeg29cbS2W2j_m-16">
          <mxGeometry y="60" width="140" height="30" as="geometry" />
        </mxCell>
        <mxCell id="XrJG6Ypeg29cbS2W2j_m-31" value="public class Youtuber&lt;br style=&quot;border-color: var(--border-color); font-size: 9px;&quot;&gt;{&lt;br style=&quot;border-color: var(--border-color); font-size: 9px;&quot;&gt;&#x9;&lt;span style=&quot;white-space: pre; font-size: 9px;&quot;&gt;&#x9;&lt;/span&gt;private Content[] contents = new Content100];&lt;br&gt;&lt;span style=&quot;white-space: pre;&quot;&gt;&#x9;&lt;/span&gt;private int _contentsCount;&lt;br&gt;&lt;span style=&quot;white-space: pre;&quot;&gt;&#x9;&lt;/span&gt;public delegate void onContentUploadedHandler(Content content); // 대리자 타입 정의&lt;br&gt;&lt;span style=&quot;white-space: pre;&quot;&gt;&#x9;&lt;/span&gt;public OncontentUploadedHandler OnContentUploaded; // 대리자 선언&lt;br style=&quot;font-size: 9px;&quot;&gt;&lt;br&gt;&lt;span style=&quot;white-space: pre;&quot;&gt;&#x9;&lt;/span&gt;public Subscriber[] subscribers = new Subscriber[100];&lt;br&gt;&lt;span style=&quot;white-space: pre;&quot;&gt;&#x9;&lt;/span&gt;public ContentQA[] contentQAs =&amp;nbsp;&lt;br&gt;&lt;br style=&quot;font-size: 9px;&quot;&gt;public class ContentQA&lt;br style=&quot;font-size: 9px;&quot;&gt;{&lt;br style=&quot;font-size: 9px;&quot;&gt;&lt;span style=&quot;font-size: 9px;&quot;&gt;&lt;span style=&quot;white-space: pre; font-size: 9px;&quot;&gt;&amp;nbsp;&amp;nbsp;&amp;nbsp;&amp;nbsp;&lt;/span&gt;&lt;/span&gt;private void Notification(Content content)&lt;br style=&quot;font-size: 9px;&quot;&gt;&lt;span style=&quot;font-size: 9px;&quot;&gt;&lt;span style=&quot;white-space: pre; font-size: 9px;&quot;&gt;&amp;nbsp;&amp;nbsp;&amp;nbsp;&amp;nbsp;&lt;/span&gt;&lt;/span&gt;{&lt;br style=&quot;font-size: 9px;&quot;&gt;&lt;span style=&quot;font-size: 9px;&quot;&gt;&lt;span style=&quot;white-space: pre; font-size: 9px;&quot;&gt;&amp;nbsp;&amp;nbsp;&amp;nbsp;&amp;nbsp;&lt;/span&gt;&lt;/span&gt;&lt;span style=&quot;font-size: 9px;&quot;&gt;&lt;span style=&quot;white-space: pre; font-size: 9px;&quot;&gt;&amp;nbsp;&amp;nbsp;&amp;nbsp;&amp;nbsp;&lt;/span&gt;&lt;/span&gt;Console.WriteLine($&quot;{content.Name} 이 업로드 되었으니 검수하세요..!&quot;);&lt;br style=&quot;font-size: 9px;&quot;&gt;&lt;span style=&quot;font-size: 9px;&quot;&gt;&lt;span style=&quot;white-space: pre; font-size: 9px;&quot;&gt;&amp;nbsp;&amp;nbsp;&amp;nbsp;&amp;nbsp;&lt;/span&gt;&lt;/span&gt;}&lt;br style=&quot;font-size: 9px;&quot;&gt;}&lt;br style=&quot;font-size: 9px;&quot;&gt;&lt;br style=&quot;font-size: 9px;&quot;&gt;public interface INotifyContent&lt;br style=&quot;font-size: 9px;&quot;&gt;{&lt;br style=&quot;font-size: 9px;&quot;&gt;&lt;span style=&quot;font-size: 9px;&quot;&gt;&lt;span style=&quot;white-space: pre; font-size: 9px;&quot;&gt;&amp;nbsp;&amp;nbsp;&amp;nbsp;&amp;nbsp;&lt;/span&gt;&lt;/span&gt;void Notification(Content content)" style="text;html=1;strokeColor=none;fillColor=none;align=left;verticalAlign=top;whiteSpace=wrap;rounded=0;fontSize=9;" vertex="1" parent="1">
          <mxGeometry x="-400" y="720" width="683" height="290" as="geometry" />
        </mxCell>
        <mxCell id="XrJG6Ypeg29cbS2W2j_m-32" style="edgeStyle=orthogonalEdgeStyle;rounded=0;orthogonalLoop=1;jettySize=auto;html=1;entryX=1;entryY=0.5;entryDx=0;entryDy=0;" edge="1" parent="1" source="XrJG6Ypeg29cbS2W2j_m-27" target="XrJG6Ypeg29cbS2W2j_m-18">
          <mxGeometry relative="1" as="geometry" />
        </mxCell>
        <mxCell id="XrJG6Ypeg29cbS2W2j_m-34" value="구독자가 유튜버를 검색해서 참조하는 형태" style="text;html=1;strokeColor=none;fillColor=none;align=center;verticalAlign=middle;whiteSpace=wrap;rounded=0;" vertex="1" parent="1">
          <mxGeometry x="-780" y="250" width="290" height="30" as="geometry" />
        </mxCell>
        <mxCell id="XrJG6Ypeg29cbS2W2j_m-36" value="구독자" style="swimlane;fontStyle=0;childLayout=stackLayout;horizontal=1;startSize=30;horizontalStack=0;resizeParent=1;resizeParentMax=0;resizeLast=0;collapsible=1;marginBottom=0;whiteSpace=wrap;html=1;" vertex="1" parent="1">
          <mxGeometry x="-800" y="290" width="220" height="90" as="geometry">
            <mxRectangle x="-780" y="260" width="80" height="30" as="alternateBounds" />
          </mxGeometry>
        </mxCell>
        <mxCell id="XrJG6Ypeg29cbS2W2j_m-37" value="+ 구독중인 유튜버들 : 유튜버[]" style="text;strokeColor=none;fillColor=none;align=left;verticalAlign=middle;spacingLeft=4;spacingRight=4;overflow=hidden;points=[[0,0.5],[1,0.5]];portConstraint=eastwest;rotatable=0;whiteSpace=wrap;html=1;" vertex="1" parent="XrJG6Ypeg29cbS2W2j_m-36">
          <mxGeometry y="30" width="220" height="30" as="geometry" />
        </mxCell>
        <mxCell id="XrJG6Ypeg29cbS2W2j_m-38" value="+ 알림 (콘텐츠)" style="text;strokeColor=default;fillColor=none;align=left;verticalAlign=middle;spacingLeft=4;spacingRight=4;overflow=hidden;points=[[0,0.5],[1,0.5]];portConstraint=eastwest;rotatable=0;whiteSpace=wrap;html=1;" vertex="1" parent="XrJG6Ypeg29cbS2W2j_m-36">
          <mxGeometry y="60" width="220" height="30" as="geometry" />
        </mxCell>
        <mxCell id="XrJG6Ypeg29cbS2W2j_m-39" value="유튜버" style="swimlane;fontStyle=0;childLayout=stackLayout;horizontal=1;startSize=30;horizontalStack=0;resizeParent=1;resizeParentMax=0;resizeLast=0;collapsible=1;marginBottom=0;whiteSpace=wrap;html=1;" vertex="1" parent="1">
          <mxGeometry x="-500" y="290" width="360" height="120" as="geometry">
            <mxRectangle x="-520" y="140" width="80" height="30" as="alternateBounds" />
          </mxGeometry>
        </mxCell>
        <mxCell id="XrJG6Ypeg29cbS2W2j_m-40" value="- 업로드한 콘텐츠들 : 콘텐츠 []" style="text;strokeColor=none;fillColor=none;align=left;verticalAlign=middle;spacingLeft=4;spacingRight=4;overflow=hidden;points=[[0,0.5],[1,0.5]];portConstraint=eastwest;rotatable=0;whiteSpace=wrap;html=1;" vertex="1" parent="XrJG6Ypeg29cbS2W2j_m-39">
          <mxGeometry y="30" width="360" height="30" as="geometry" />
        </mxCell>
        <mxCell id="XrJG6Ypeg29cbS2W2j_m-41" value="- 콘텐츠 업로드할 때 실행할 거 (OnContentUploaded) : 대리자" style="text;strokeColor=none;fillColor=none;align=left;verticalAlign=middle;spacingLeft=4;spacingRight=4;overflow=hidden;points=[[0,0.5],[1,0.5]];portConstraint=eastwest;rotatable=0;whiteSpace=wrap;html=1;" vertex="1" parent="XrJG6Ypeg29cbS2W2j_m-39">
          <mxGeometry y="60" width="360" height="30" as="geometry" />
        </mxCell>
        <mxCell id="XrJG6Ypeg29cbS2W2j_m-42" value="+ 콘텐츠업로드 (콘텐츠) : void" style="text;strokeColor=default;fillColor=none;align=left;verticalAlign=middle;spacingLeft=4;spacingRight=4;overflow=hidden;points=[[0,0.5],[1,0.5]];portConstraint=eastwest;rotatable=0;whiteSpace=wrap;html=1;" vertex="1" parent="XrJG6Ypeg29cbS2W2j_m-39">
          <mxGeometry y="90" width="360" height="30" as="geometry" />
        </mxCell>
        <mxCell id="XrJG6Ypeg29cbS2W2j_m-43" style="edgeStyle=orthogonalEdgeStyle;rounded=0;orthogonalLoop=1;jettySize=auto;html=1;entryX=-0.008;entryY=0.167;entryDx=0;entryDy=0;entryPerimeter=0;" edge="1" parent="1" source="XrJG6Ypeg29cbS2W2j_m-37" target="XrJG6Ypeg29cbS2W2j_m-39">
          <mxGeometry relative="1" as="geometry" />
        </mxCell>
        <mxCell id="XrJG6Ypeg29cbS2W2j_m-44" value="- 콘텐츠 업로드할 때 실행할 거 : 대리자" style="rounded=0;whiteSpace=wrap;html=1;" vertex="1" parent="1">
          <mxGeometry x="-110" y="290" width="300" height="26.66666666666667" as="geometry" />
        </mxCell>
        <mxCell id="XrJG6Ypeg29cbS2W2j_m-45" value="구독자.알림(콘텐츠)" style="rounded=0;whiteSpace=wrap;html=1;" vertex="1" parent="1">
          <mxGeometry x="-110" y="316.6666666666667" width="300" height="26.66666666666667" as="geometry" />
        </mxCell>
        <mxCell id="XrJG6Ypeg29cbS2W2j_m-46" value="구독자.알림(콘텐츠)" style="rounded=0;whiteSpace=wrap;html=1;" vertex="1" parent="1">
          <mxGeometry x="-110" y="343.33333333333337" width="300" height="26.66666666666667" as="geometry" />
        </mxCell>
        <mxCell id="XrJG6Ypeg29cbS2W2j_m-48" value="검수자.알림(콘텐츠)" style="rounded=0;whiteSpace=wrap;html=1;" vertex="1" parent="1">
          <mxGeometry x="-110" y="370.0033333333334" width="300" height="26.66666666666667" as="geometry" />
        </mxCell>
        <mxCell id="XrJG6Ypeg29cbS2W2j_m-49" value="구독자" style="swimlane;fontStyle=0;childLayout=stackLayout;horizontal=1;startSize=30;horizontalStack=0;resizeParent=1;resizeParentMax=0;resizeLast=0;collapsible=1;marginBottom=0;whiteSpace=wrap;html=1;" vertex="1" parent="1">
          <mxGeometry x="-800" y="390" width="220" height="90" as="geometry">
            <mxRectangle x="-780" y="260" width="80" height="30" as="alternateBounds" />
          </mxGeometry>
        </mxCell>
        <mxCell id="XrJG6Ypeg29cbS2W2j_m-56" style="edgeStyle=orthogonalEdgeStyle;rounded=0;orthogonalLoop=1;jettySize=auto;html=1;" edge="1" parent="XrJG6Ypeg29cbS2W2j_m-49" source="XrJG6Ypeg29cbS2W2j_m-50">
          <mxGeometry relative="1" as="geometry">
            <mxPoint x="260" y="-60" as="targetPoint" />
          </mxGeometry>
        </mxCell>
        <mxCell id="XrJG6Ypeg29cbS2W2j_m-50" value="+ 구독중인 유튜버들 : 유튜버[]" style="text;strokeColor=none;fillColor=none;align=left;verticalAlign=middle;spacingLeft=4;spacingRight=4;overflow=hidden;points=[[0,0.5],[1,0.5]];portConstraint=eastwest;rotatable=0;whiteSpace=wrap;html=1;" vertex="1" parent="XrJG6Ypeg29cbS2W2j_m-49">
          <mxGeometry y="30" width="220" height="30" as="geometry" />
        </mxCell>
        <mxCell id="XrJG6Ypeg29cbS2W2j_m-51" value="+ 알림 (콘텐츠)" style="text;strokeColor=default;fillColor=none;align=left;verticalAlign=middle;spacingLeft=4;spacingRight=4;overflow=hidden;points=[[0,0.5],[1,0.5]];portConstraint=eastwest;rotatable=0;whiteSpace=wrap;html=1;" vertex="1" parent="XrJG6Ypeg29cbS2W2j_m-49">
          <mxGeometry y="60" width="220" height="30" as="geometry" />
        </mxCell>
        <mxCell id="XrJG6Ypeg29cbS2W2j_m-52" value="구독자" style="swimlane;fontStyle=0;childLayout=stackLayout;horizontal=1;startSize=30;horizontalStack=0;resizeParent=1;resizeParentMax=0;resizeLast=0;collapsible=1;marginBottom=0;whiteSpace=wrap;html=1;" vertex="1" parent="1">
          <mxGeometry x="-800" y="492" width="220" height="90" as="geometry">
            <mxRectangle x="-780" y="260" width="80" height="30" as="alternateBounds" />
          </mxGeometry>
        </mxCell>
        <mxCell id="XrJG6Ypeg29cbS2W2j_m-57" style="edgeStyle=orthogonalEdgeStyle;rounded=0;orthogonalLoop=1;jettySize=auto;html=1;" edge="1" parent="XrJG6Ypeg29cbS2W2j_m-52" source="XrJG6Ypeg29cbS2W2j_m-53">
          <mxGeometry relative="1" as="geometry">
            <mxPoint x="260" y="-62" as="targetPoint" />
          </mxGeometry>
        </mxCell>
        <mxCell id="XrJG6Ypeg29cbS2W2j_m-53" value="+ 검수대상유튜버들 : 유튜버[]" style="text;strokeColor=none;fillColor=none;align=left;verticalAlign=middle;spacingLeft=4;spacingRight=4;overflow=hidden;points=[[0,0.5],[1,0.5]];portConstraint=eastwest;rotatable=0;whiteSpace=wrap;html=1;" vertex="1" parent="XrJG6Ypeg29cbS2W2j_m-52">
          <mxGeometry y="30" width="220" height="30" as="geometry" />
        </mxCell>
        <mxCell id="XrJG6Ypeg29cbS2W2j_m-54" value="+ 알림 (콘텐츠)" style="text;strokeColor=default;fillColor=none;align=left;verticalAlign=middle;spacingLeft=4;spacingRight=4;overflow=hidden;points=[[0,0.5],[1,0.5]];portConstraint=eastwest;rotatable=0;whiteSpace=wrap;html=1;" vertex="1" parent="XrJG6Ypeg29cbS2W2j_m-52">
          <mxGeometry y="60" width="220" height="30" as="geometry" />
        </mxCell>
        <UserObject label="https://github.com/luke-youngmin-cho/UnityEngineBasic_10th" link="https://github.com/luke-youngmin-cho/UnityEngineBasic_10th" id="XrJG6Ypeg29cbS2W2j_m-58">
          <mxCell style="text;whiteSpace=wrap;" vertex="1" parent="1">
            <mxGeometry x="-110" y="67.5" width="360" height="40" as="geometry" />
          </mxCell>
        </UserObject>
        <mxCell id="XrJG6Ypeg29cbS2W2j_m-59" value="-강의자료 올려준 것 확인 + 복습 내 깃허브에 옮겨놓기" style="text;html=1;strokeColor=#b85450;fillColor=#f8cecc;align=left;verticalAlign=middle;whiteSpace=wrap;rounded=0;fontSize=10;" vertex="1" parent="1">
          <mxGeometry x="-110" y="50" width="260" height="20" as="geometry" />
        </mxCell>
      </root>
    </mxGraphModel>
  </diagram>
</mxfile>
